# xmcd
#
# Track frame offsets:
#	150
#	14340
#	34052
#	61207
#	74710
#	88037
#	105410
#	127720
#	150482
#
# Disc length: 2312 seconds
#
# Revision: 1
# Processed by: cddbd v1.5.2PL0 Copyright (c) Steve Scherf et al.
# Submitted via: audiograbber 1.83.01
#
DISCID=69090609
DTITLE=Danny Adler - The Roogalator Years
DYEAR=1976
DGENRE=Blues
TTITLE0=Zero Hero
TTITLE1=Tasty Two
TTITLE2=Cincinnati Fatback
TTITLE3=Water
TTITLE4=Sweet Mama Kundalini
TTITLE5=Sock ItTo My Pocket
TTITLE6=All Aboard
TTITLE7=Humanitation
TTITLE8=Change
EXTD=
EXTT0=
EXTT1=
EXTT2=
EXTT3=
EXTT4=
EXTT5=
EXTT6=
EXTT7=
EXTT8=
PLAYORDER=
